<mxfile host="app.diagrams.net" modified="2022-07-26T06:10:28.346Z" agent="5.0 (Windows NT 10.0; Win64; x64) AppleWebKit/537.36 (KHTML, like Gecko) Chrome/97.0.4692.99 Safari/537.36" etag="en_T8B9J4xR2sJbBFiS0" version="20.2.0" type="github">
  <diagram name="Page-1" id="bfe91b75-5d2c-26a0-9c1d-138518896778">
    <mxGraphModel dx="-124" dy="1046" grid="1" gridSize="10" guides="1" tooltips="1" connect="1" arrows="1" fold="1" page="1" pageScale="1" pageWidth="1100" pageHeight="850" background="none" math="0" shadow="1">
      <root>
        <mxCell id="0" />
        <mxCell id="1" parent="0" />
        <mxCell id="7c3789c024ecab99-5" value="" style="fontColor=#0066CC;verticalAlign=top;verticalLabelPosition=bottom;labelPosition=center;align=center;html=1;fillColor=#CCCCCC;strokeColor=#6881B3;gradientColor=none;gradientDirection=north;strokeWidth=2;shape=mxgraph.networks.pc;rounded=0;shadow=0;comic=0;" parent="1" vertex="1">
          <mxGeometry x="2340" y="319" width="100" height="70" as="geometry" />
        </mxCell>
        <mxCell id="AK2GbSQ76jSNmPcB2U2c-1" value="" style="fontColor=#0066CC;verticalAlign=top;verticalLabelPosition=bottom;labelPosition=center;align=center;html=1;fillColor=#CCCCCC;strokeColor=#6881B3;gradientColor=none;gradientDirection=north;strokeWidth=2;shape=mxgraph.networks.pc;rounded=0;shadow=0;comic=0;" vertex="1" parent="1">
          <mxGeometry x="2340" y="520" width="100" height="70" as="geometry" />
        </mxCell>
        <mxCell id="AK2GbSQ76jSNmPcB2U2c-3" value="数据上报" style="text;html=1;strokeColor=none;fillColor=none;align=center;verticalAlign=middle;whiteSpace=wrap;rounded=0;" vertex="1" parent="1">
          <mxGeometry x="2360" y="410" width="60" height="30" as="geometry" />
        </mxCell>
        <mxCell id="AK2GbSQ76jSNmPcB2U2c-4" value="数据采集" style="text;html=1;strokeColor=none;fillColor=none;align=center;verticalAlign=middle;whiteSpace=wrap;rounded=0;" vertex="1" parent="1">
          <mxGeometry x="2360" y="612" width="60" height="30" as="geometry" />
        </mxCell>
        <mxCell id="AK2GbSQ76jSNmPcB2U2c-5" value="" style="fontColor=#0066CC;verticalAlign=top;verticalLabelPosition=bottom;labelPosition=center;align=center;html=1;fillColor=#CCCCCC;strokeColor=#6881B3;gradientColor=none;gradientDirection=north;strokeWidth=2;shape=mxgraph.networks.pc;rounded=0;shadow=0;comic=0;" vertex="1" parent="1">
          <mxGeometry x="2630" y="425" width="100" height="70" as="geometry" />
        </mxCell>
        <mxCell id="AK2GbSQ76jSNmPcB2U2c-6" value="" style="endArrow=classic;html=1;rounded=0;entryX=0;entryY=0.5;entryDx=0;entryDy=0;entryPerimeter=0;" edge="1" parent="1" source="7c3789c024ecab99-5" target="AK2GbSQ76jSNmPcB2U2c-5">
          <mxGeometry width="50" height="50" relative="1" as="geometry">
            <mxPoint x="2660" y="540" as="sourcePoint" />
            <mxPoint x="2700" y="459" as="targetPoint" />
          </mxGeometry>
        </mxCell>
        <mxCell id="AK2GbSQ76jSNmPcB2U2c-7" value="" style="endArrow=classic;html=1;rounded=0;entryX=0;entryY=0.5;entryDx=0;entryDy=0;entryPerimeter=0;" edge="1" parent="1" source="AK2GbSQ76jSNmPcB2U2c-1" target="AK2GbSQ76jSNmPcB2U2c-5">
          <mxGeometry width="50" height="50" relative="1" as="geometry">
            <mxPoint x="2660" y="540" as="sourcePoint" />
            <mxPoint x="2710" y="660" as="targetPoint" />
          </mxGeometry>
        </mxCell>
        <mxCell id="AK2GbSQ76jSNmPcB2U2c-10" value="" style="fontColor=#0066CC;verticalAlign=top;verticalLabelPosition=bottom;labelPosition=center;align=center;html=1;fillColor=#CCCCCC;strokeColor=#6881B3;gradientColor=none;gradientDirection=north;strokeWidth=2;shape=mxgraph.networks.pc;rounded=0;shadow=0;comic=0;" vertex="1" parent="1">
          <mxGeometry x="2810" y="260" width="100" height="70" as="geometry" />
        </mxCell>
        <mxCell id="AK2GbSQ76jSNmPcB2U2c-11" value="" style="endArrow=classic;html=1;rounded=0;entryX=0;entryY=0.85;entryDx=0;entryDy=0;entryPerimeter=0;" edge="1" parent="1" source="AK2GbSQ76jSNmPcB2U2c-5" target="AK2GbSQ76jSNmPcB2U2c-10">
          <mxGeometry width="50" height="50" relative="1" as="geometry">
            <mxPoint x="2650" y="560" as="sourcePoint" />
            <mxPoint x="2700" y="510" as="targetPoint" />
          </mxGeometry>
        </mxCell>
        <mxCell id="AK2GbSQ76jSNmPcB2U2c-12" value="" style="fontColor=#0066CC;verticalAlign=top;verticalLabelPosition=bottom;labelPosition=center;align=center;html=1;fillColor=#CCCCCC;strokeColor=#6881B3;gradientColor=none;gradientDirection=north;strokeWidth=2;shape=mxgraph.networks.mobile;rounded=0;shadow=0;comic=0;" vertex="1" parent="1">
          <mxGeometry x="2930" y="445" width="30" height="55" as="geometry" />
        </mxCell>
        <mxCell id="AK2GbSQ76jSNmPcB2U2c-15" value="" style="endArrow=classic;html=1;rounded=0;exitX=0.5;exitY=1;exitDx=0;exitDy=0;exitPerimeter=0;entryX=0.5;entryY=0;entryDx=0;entryDy=0;entryPerimeter=0;" edge="1" parent="1" source="AK2GbSQ76jSNmPcB2U2c-10" target="AK2GbSQ76jSNmPcB2U2c-12">
          <mxGeometry width="50" height="50" relative="1" as="geometry">
            <mxPoint x="2630" y="450" as="sourcePoint" />
            <mxPoint x="2680" y="400" as="targetPoint" />
          </mxGeometry>
        </mxCell>
        <mxCell id="AK2GbSQ76jSNmPcB2U2c-16" value="告警推送" style="text;html=1;strokeColor=none;fillColor=none;align=center;verticalAlign=middle;whiteSpace=wrap;rounded=0;" vertex="1" parent="1">
          <mxGeometry x="2870" y="410" width="60" height="30" as="geometry" />
        </mxCell>
        <mxCell id="AK2GbSQ76jSNmPcB2U2c-18" value="" style="fontColor=#0066CC;verticalAlign=top;verticalLabelPosition=bottom;labelPosition=center;align=center;html=1;fillColor=#CCCCCC;strokeColor=#6881B3;gradientColor=none;gradientDirection=north;strokeWidth=2;shape=mxgraph.networks.pc;rounded=0;shadow=0;comic=0;" vertex="1" parent="1">
          <mxGeometry x="3080" y="375" width="70" height="55" as="geometry" />
        </mxCell>
        <mxCell id="AK2GbSQ76jSNmPcB2U2c-26" value="" style="rounded=0;whiteSpace=wrap;html=1;dashed=1;gradientColor=none;" vertex="1" parent="1">
          <mxGeometry x="2560" y="510.29" width="240" height="79.71" as="geometry" />
        </mxCell>
        <mxCell id="AK2GbSQ76jSNmPcB2U2c-19" value="" style="endArrow=classic;html=1;rounded=0;exitX=0;exitY=0;exitDx=0;exitDy=0;exitPerimeter=0;entryX=0.95;entryY=1;entryDx=0;entryDy=0;entryPerimeter=0;" edge="1" parent="1" source="AK2GbSQ76jSNmPcB2U2c-18" target="AK2GbSQ76jSNmPcB2U2c-10">
          <mxGeometry width="50" height="50" relative="1" as="geometry">
            <mxPoint x="2650" y="440" as="sourcePoint" />
            <mxPoint x="2700" y="390" as="targetPoint" />
          </mxGeometry>
        </mxCell>
        <mxCell id="AK2GbSQ76jSNmPcB2U2c-20" value="日志查询" style="text;html=1;strokeColor=none;fillColor=none;align=center;verticalAlign=middle;whiteSpace=wrap;rounded=0;" vertex="1" parent="1">
          <mxGeometry x="3010" y="330" width="60" height="30" as="geometry" />
        </mxCell>
        <mxCell id="AK2GbSQ76jSNmPcB2U2c-28" value="&lt;span style=&quot;font-size: 14px;&quot;&gt;实时数据&lt;/span&gt;" style="html=1;fillColor=#CCCCCC;strokeColor=#6881B3;gradientColor=none;gradientDirection=north;strokeWidth=2;shape=mxgraph.networks.cloud;fontColor=#6881B3;rounded=0;shadow=0;comic=0;align=center;fontSize=28;" vertex="1" parent="1">
          <mxGeometry x="2580" y="529.7000000000002" width="80" height="50.59" as="geometry" />
        </mxCell>
        <mxCell id="AK2GbSQ76jSNmPcB2U2c-29" value="&lt;font style=&quot;font-size: 14px;&quot;&gt;全量数据&lt;/font&gt;" style="html=1;fillColor=#CCCCCC;strokeColor=#6881B3;gradientColor=none;gradientDirection=north;strokeWidth=2;shape=mxgraph.networks.cloud;fontColor=#6881B3;rounded=0;shadow=0;comic=0;align=center;fontSize=28;" vertex="1" parent="1">
          <mxGeometry x="2685" y="528.7000000000002" width="80" height="50.59" as="geometry" />
        </mxCell>
        <mxCell id="AK2GbSQ76jSNmPcB2U2c-30" value="数据展示" style="text;html=1;strokeColor=none;fillColor=none;align=center;verticalAlign=middle;whiteSpace=wrap;rounded=0;" vertex="1" parent="1">
          <mxGeometry x="2740" y="270" width="60" height="30" as="geometry" />
        </mxCell>
      </root>
    </mxGraphModel>
  </diagram>
</mxfile>
